<svg viewBox="0 0 20 26" xmlns="http://www.w3.org/2000/svg">
<path d="M3.68608 25.4935H16.3139C18.7753 25.4935 20 24.245 20 21.7717V10.975H11.3912C9.86919 10.975 9.14387 10.2497 9.14387 8.72772V0H3.68608C1.23662 0 0 1.26041 0 3.73367V21.7717C0 24.2568 1.22473 25.4935 3.68608 25.4935ZM11.4269 9.34602H19.8573C19.786 8.85851 19.4411 8.3829 18.8704 7.80025L12.3187 1.12962C11.7598 0.558878 11.2723 0.21403 10.7729 0.130819V8.70393C10.7729 9.13199 10.9869 9.34602 11.4269 9.34602ZM5.33888 16.1474C4.87514 16.1474 4.53032 15.8145 4.53032 15.3746C4.53032 14.9346 4.87514 14.5898 5.33888 14.5898H14.6968C15.1486 14.5898 15.4935 14.9346 15.4935 15.3746C15.4935 15.8145 15.1486 16.1474 14.6968 16.1474H5.33888ZM5.33888 20.654C4.87514 20.654 4.53032 20.3211 4.53032 19.8811C4.53032 19.4412 4.87514 19.0963 5.33888 19.0963H14.6968C15.1486 19.0963 15.4935 19.4412 15.4935 19.8811C15.4935 20.3211 15.1486 20.654 14.6968 20.654H5.33888Z" fill="#BFBFBF"/>
</svg>
