<svg viewBox="0 0 25 20" xmlns="http://www.w3.org/2000/svg">
<path d="M5.57017 18.7807C5.92106 18.7807 6.16666 18.614 6.57895 18.2281L9.13157 15.8509C8.64035 15.4561 8.23684 14.8333 8.23684 13.4035V7.58772C8.23684 4.89474 9.86842 3.29825 12.5614 3.29825H18.7018L18.693 2.96491C18.5613 1.16666 17.3773 0 15.3684 0H3.33334C1.32455 0 0 1.20175 0 3.28947V11.9035C0 13.9912 1.32455 15.3333 3.33334 15.3333H4.78947V17.886C4.78947 18.4298 5.07895 18.7807 5.57017 18.7807ZM19.7456 20C20.2455 20 20.5351 19.6404 20.5351 19.1053V16.5439H21.4562C23.4648 16.5439 24.7894 15.2018 24.7894 13.1228V7.78948C24.7894 5.69297 23.4648 4.5 21.4562 4.5H12.7719C10.6754 4.5 9.43859 5.69297 9.43859 7.78948V13.1228C9.43859 15.2018 10.6754 16.5439 12.7719 16.5439H15.5702L18.7456 19.4386C19.1579 19.8246 19.4035 20 19.7456 20Z" fill="#BFBFBF"/>
</svg>
