<svg role="img" viewBox="0 0 64 51" xmlns="http://www.w3.org/2000/svg">
<path d="M58.1438 0H5.85621C2.62776 0 0 2.62693 0 5.85621V44.3399C0 47.5692 2.62776 50.1961 5.85621 50.1961H58.1438C61.3722 50.1961 64 47.5692 64 44.3399V5.85621C64 2.62693 61.3722 0 58.1438 0ZM58.1438 3.34641C58.7537 3.34641 59.305 3.57312 59.7392 3.93537L32 25.4887L4.26081 3.93537C4.69584 3.57312 5.24716 3.34641 5.85621 3.34641H58.1438ZM58.1438 46.8497H5.85621C4.47247 46.8497 3.34641 45.7236 3.34641 44.3399V7.46248L32 29.727L60.6536 7.46332V44.3399C60.6536 45.7236 59.5275 46.8497 58.1438 46.8497Z"/>
</svg>
