<svg viewBox="0 0 2198 2500" fill="none" xmlns="http://www.w3.org/2000/svg">
<path d="M7.33105 1824.85V2233.67C7.33105 2462.06 149.373 2500 268.348 2500C444.383 2500 525.875 2385.73 525.875 2231.4V1824.69H409.48V2245.2C409.48 2298.32 391.725 2397.41 268.348 2395.44C156.05 2393.47 135.563 2292.25 135.563 2227.15V1824.85H7.33105ZM1012.55 1851.55C1012.55 1851.55 938.192 1815.44 853.665 1815.44C748.499 1815.44 616.169 1868.4 616.169 2013.32C616.169 2113.79 691.591 2161.28 742.884 2185.72C770.2 2198.77 803.282 2213.34 830.598 2227.75C844.711 2235.34 900.708 2253.85 900.708 2313.19C900.708 2376.93 829.687 2398.48 797.819 2398.48C684.307 2398.48 606.912 2347.79 606.912 2347.79L618.901 2475.26C618.901 2475.26 665.338 2498.48 804.193 2498.79C936.674 2498.33 1032.13 2414.71 1032.13 2299.68C1032.13 2211.21 970.667 2158.7 918.008 2133.67C876.731 2113.94 852.754 2103.01 816.788 2086.32C780.823 2069.62 743.643 2040.94 743.643 1996.48C743.643 1948.83 788.259 1914.53 853.665 1914.53C950.18 1914.53 988.878 1957.33 1012.55 1970.68V1851.55ZM1960.26 1823.78H1820.64L1842.8 1879.17L1625.79 2447.49L1401.95 1823.78H1262.34L1284.49 1879.17L1053.22 2485.13H1179.48L1219.85 2369.79H1459.01L1499.23 2485.13H1737.94L1778.46 2369.79H2017.47L2057.83 2485.13H2197.75L1960.26 1823.78ZM1251.26 2280.11L1344.13 2021.22L1426.99 2280.11H1251.26ZM1809.72 2280.11L1902.29 2021.22L1985.3 2280.11H1809.72Z" fill="#1A3258"/>
<path d="M0.046875 1080.95L6.11705 1287.63C6.11705 1287.63 57.7135 1250.15 115.532 1250.15C173.502 1250.15 238.756 1291.13 238.756 1291.13L756.694 1588.11L800.551 1401.45L238.756 1079.12C238.756 1079.12 173.502 1038.61 115.532 1038.61C57.41 1038.61 0.19863 1081.1 0.19863 1081.1" fill="#1A3258"/>
<path d="M0.046875 810.823L6.11705 1017.51C6.11705 1017.51 57.7135 980.029 115.532 980.029C173.502 980.029 238.756 1020.85 238.756 1020.85L812.539 1350.01L856.245 1163.35L238.605 809.002C238.605 809.002 173.654 768.332 115.532 768.332C57.41 768.332 0.19863 810.823 0.19863 810.823" fill="#1A3258"/>
<path d="M0.046875 540.701L6.11705 747.39C6.11705 747.39 57.7135 709.755 115.532 709.755C173.502 709.755 238.756 750.728 238.756 750.728L868.537 1111.9L912.242 925.246L238.756 538.88C238.756 538.88 173.502 498.361 115.532 498.361C57.41 498.361 0.19863 540.701 0.19863 540.701" fill="#1A3258"/>
<path d="M1079.48 211.849L1137.14 455.718L1925.96 907.946C1925.96 907.946 1987.88 948.616 2048.88 948.616C2109.89 948.616 2164.37 906.125 2164.37 906.125L2158.3 699.435C2158.3 699.435 2108.98 736.919 2048.88 736.919C1988.63 736.919 1925.96 696.097 1925.96 696.097L1315.76 346.152L1273.57 189.389C1273.57 182.712 1279.64 179.677 1281.92 179.222L1385.11 147.353C1399.07 147.353 1407.11 159.19 1407.11 169.054L1412.58 180.284C1416.37 182.257 1431.85 174.821 1432.91 174.214V112.298C1432.91 102.045 1430.88 91.8929 1426.92 82.4331C1422.96 72.9732 1417.17 64.3937 1409.87 57.1928C1402.57 49.992 1393.91 44.3135 1384.4 40.4871C1374.88 36.6607 1364.71 34.7627 1354.45 34.9035H1251.26C1251.26 34.9035 1236.09 0 1192.23 0H996.162C944.566 0 931.97 47.9544 931.97 47.9544L795.846 588.503L238.756 268.909C238.756 268.909 178.358 227.935 115.532 227.935C52.7057 227.935 0.19873 270.426 0.19873 270.426L6.11715 477.267C6.11715 477.267 52.554 439.784 115.38 439.784C178.206 439.784 238.756 480.758 238.756 480.758L924.231 873.649L1079.48 211.849Z" fill="#1A3258"/>
<path d="M1152.62 522.642L1210.29 767.573L1925.96 1177.92C1925.96 1177.92 1990 1218.89 2048.88 1218.89C2107.76 1218.89 2164.37 1176.25 2164.37 1176.25L2158.45 969.558C2158.45 969.558 2112.62 1007.04 2048.88 1007.04C1985.14 1007.04 1925.96 966.371 1925.96 966.371L1152.62 522.642Z" fill="#1A3258"/>
<path d="M1225.92 834.8L1283.58 1079.88L1925.96 1448.04C1925.96 1448.04 1990 1488.86 2048.88 1488.86C2107.76 1488.86 2164.37 1446.37 2164.37 1446.37L2158.3 1239.68C2158.3 1239.68 2112.77 1277.16 2048.88 1277.16C1985.14 1277.16 1925.96 1236.49 1925.96 1236.49L1225.92 834.8Z" fill="#1A3258"/>
<path d="M1299.52 1147.26L1356.88 1391.89L1925.96 1718.16C1925.96 1718.16 1990 1759.14 2048.88 1759.14C2107.61 1759.14 2164.37 1716.49 2164.37 1716.49L2158.3 1509.95C2158.3 1509.95 2112.77 1547.29 2048.88 1547.29C1984.99 1547.29 1925.96 1506.46 1925.96 1506.46L1299.52 1147.26Z" fill="#1A3258"/>
</svg>
