<svg viewBox="0 0 20 21" xmlns="http://www.w3.org/2000/svg">
<path d="M10.0043 7.49245C12.0516 7.49245 13.7462 5.79784 13.7462 3.74194C13.7462 1.68601 12.0516 0 10.0043 0C7.93116 0 6.24515 1.68601 6.24515 3.74194C6.24515 5.79784 7.93116 7.49245 10.0043 7.49245ZM3.75053 13.944C5.80643 13.944 7.50106 12.2494 7.50106 10.1935C7.50106 8.14622 5.80643 6.45159 3.75053 6.45159C1.67741 6.45159 0 8.14622 0 10.1935C0 12.2494 1.67741 13.944 3.75053 13.944ZM16.2579 13.944C18.3052 13.944 20 12.2494 20 10.1935C20 8.14622 18.3052 6.45159 16.2579 6.45159C14.1849 6.45159 12.4989 8.14622 12.4989 10.1935C12.4989 12.2494 14.1849 13.944 16.2579 13.944ZM10.0043 20.3956C12.0516 20.3956 13.7462 18.701 13.7462 16.6451C13.7462 14.5978 12.0516 12.9032 10.0043 12.9032C7.93116 12.9032 6.24515 14.5978 6.24515 16.6451C6.24515 18.701 7.93116 20.3956 10.0043 20.3956Z" fill="#BFBFBF"/>
</svg>
